<svg width="100" height="100" viewBox="0 0 100 100" fill="none" xmlns="http://www.w3.org/2000/svg">
  <rect width="100" height="100" rx="20" fill="#0D6EFD" />
  <rect width="100" height="100" rx="20" fill="url(#paint0_linear)" />
  
  <!-- J -->
  <path d="M35 30H45V60C45 63.3137 42.3137 66 39 66H35C31.6863 66 29 63.3137 29 60V55" stroke="white" stroke-width="5" stroke-linecap="round" />
  
  <!-- R -->
  <path d="M55 30H65C68.3137 30 71 32.6863 71 36V42C71 45.3137 68.3137 48 65 48H55V66" stroke="white" stroke-width="5" stroke-linecap="round" />
  <path d="M55 48L69 66" stroke="white" stroke-width="5" stroke-linecap="round" />
  
  <!-- Circuit lines -->
  <path d="M15 25H25" stroke="white" stroke-width="2" stroke-linecap="round" />
  <path d="M75 80H85" stroke="white" stroke-width="2" stroke-linecap="round" />
  <path d="M20 75V85" stroke="white" stroke-width="2" stroke-linecap="round" />
  <path d="M80 15V25" stroke="white" stroke-width="2" stroke-linecap="round" />
  
  <!-- Small circuit dots -->
  <circle cx="15" cy="15" r="3" fill="white" />
  <circle cx="85" cy="85" r="3" fill="white" />
  <circle cx="15" cy="85" r="3" fill="white" />
  <circle cx="85" cy="15" r="3" fill="white" />
  
  <defs>
    <linearGradient id="paint0_linear" x1="0" y1="0" x2="100" y2="100" gradientUnits="userSpaceOnUse">
      <stop stop-color="#0D6EFD" />
      <stop offset="1" stop-color="#20C997" />
    </linearGradient>
  </defs>
</svg> 