<?xml version="1.0" encoding="UTF-8"?>
<svg width="200" height="40" viewBox="0 0 200 40" fill="none" xmlns="http://www.w3.org/2000/svg">
  <path d="M9.1,20.3v-8.8c0-1.3,1-2.3,2.3-2.3h8.8c1.3,0,2.3,1,2.3,2.3v8.8c0,1.3-1,2.3-2.3,2.3h-8.8 C10.1,22.6,9.1,21.6,9.1,20.3z" fill="#9FEF00"/>
  <path d="M24.8,20.3v-8.8c0-1.3,1-2.3,2.3-2.3h8.8c1.3,0,2.3,1,2.3,2.3v8.8c0,1.3-1,2.3-2.3,2.3h-8.8 C25.8,22.6,24.8,21.6,24.8,20.3z" fill="#9FEF00"/>
  <path d="M40.5,20.3v-8.8c0-1.3,1-2.3,2.3-2.3h8.8c1.3,0,2.3,1,2.3,2.3v8.8c0,1.3-1,2.3-2.3,2.3h-8.8 C41.5,22.6,40.5,21.6,40.5,20.3z" fill="#9FEF00"/>
  <path d="M9.1,36v-8.8c0-1.3,1-2.3,2.3-2.3h8.8c1.3,0,2.3,1,2.3,2.3V36c0,1.3-1,2.3-2.3,2.3h-8.8 C10.1,38.3,9.1,37.3,9.1,36z" fill="#9FEF00"/>
  <path d="M24.8,36v-8.8c0-1.3,1-2.3,2.3-2.3h8.8c1.3,0,2.3,1,2.3,2.3V36c0,1.3-1,2.3-2.3,2.3h-8.8 C25.8,38.3,24.8,37.3,24.8,36z" fill="#9FEF00"/>
  <path d="M40.5,36v-8.8c0-1.3,1-2.3,2.3-2.3h8.8c1.3,0,2.3,1,2.3,2.3V36c0,1.3-1,2.3-2.3,2.3h-8.8 C41.5,38.3,40.5,37.3,40.5,36z" fill="#9FEF00"/>
  <text x="65" y="28" font-family="'JetBrains Mono', monospace" font-size="24" font-weight="700" fill="#9FEF00">HackTheBox</text>
</svg> 