<svg width="1200" height="630" viewBox="0 0 1200 630" fill="none" xmlns="http://www.w3.org/2000/svg">
  <!-- Background with gradient -->
  <rect width="1200" height="630" fill="url(#paint0_linear)" />
  
  <!-- Grid overlay -->
  <rect width="1200" height="630" fill="url(#grid)" fill-opacity="0.05" />
  
  <!-- Main content container -->
  <g filter="url(#shadow)">
    <rect x="150" y="115" width="900" height="400" rx="20" fill="#141A28" fill-opacity="0.8" />
  </g>
  
  <!-- Logo -->
  <g transform="translate(200, 165)">
    <rect width="80" height="80" rx="16" fill="url(#logo_gradient)" />
    
    <!-- J -->
    <path d="M28 24H36V48C36 50.6569 33.8807 52.8 31.2 52.8H28C25.3193 52.8 23.2 50.6569 23.2 48V44" stroke="white" stroke-width="4" stroke-linecap="round" />
    
    <!-- R -->
    <path d="M44 24H52C54.6807 24 56.8 26.1431 56.8 28.8V33.6C56.8 36.2569 54.6807 38.4 52 38.4H44V52.8" stroke="white" stroke-width="4" stroke-linecap="round" />
    <path d="M44 38.4L55.2 52.8" stroke="white" stroke-width="4" stroke-linecap="round" />
  </g>
  
  <!-- Title and subtitle -->
  <text x="310" y="210" font-family="'Inter', sans-serif" font-size="58" font-weight="700" fill="white">Jonas Resch</text>
  
  <!-- Gradient highlight -->
  <text fill="url(#text_gradient)" x="310" y="270" font-family="'Inter', sans-serif" font-size="36" font-weight="600">Cybersecurity Specialist</text>
  
  <!-- Description -->
  <text x="310" y="330" font-family="'Inter', sans-serif" font-size="24" font-weight="400" fill="white" opacity="0.8">Application Security • Penetration Testing • Secure Development</text>
  
  <!-- Small decorative elements -->
  <circle cx="200" cy="400" r="6" fill="white" opacity="0.5" />
  <circle cx="220" cy="400" r="6" fill="white" opacity="0.5" />
  <circle cx="240" cy="400" r="6" fill="white" opacity="0.5" />
  <path d="M260 400H360" stroke="white" stroke-width="2" stroke-opacity="0.3" />
  
  <!-- URL at bottom -->
  <text x="600" y="440" font-family="'Fira Code', monospace" font-size="20" font-weight="500" fill="white" opacity="0.7" text-anchor="middle">reschj.one</text>
  
  <!-- Pattern and gradient definitions -->
  <defs>
    <!-- Main background gradient -->
    <linearGradient id="paint0_linear" x1="0" y1="0" x2="1200" y2="630" gradientUnits="userSpaceOnUse">
      <stop stop-color="#121212" />
      <stop offset="1" stop-color="#2C3E50" />
    </linearGradient>
    
    <!-- Logo gradient -->
    <linearGradient id="logo_gradient" x1="0" y1="0" x2="80" y2="80" gradientUnits="userSpaceOnUse">
      <stop stop-color="#0D6EFD" />
      <stop offset="1" stop-color="#20C997" />
    </linearGradient>
    
    <!-- Text gradient for subtitle -->
    <linearGradient id="text_gradient" x1="310" y1="250" x2="700" y2="250" gradientUnits="userSpaceOnUse">
      <stop stop-color="#0D6EFD" />
      <stop offset="1" stop-color="#20C997" />
    </linearGradient>
    
    <!-- Grid pattern -->
    <pattern id="smallGrid" width="20" height="20" patternUnits="userSpaceOnUse">
      <path d="M 20 0 L 0 0 0 20" fill="none" stroke="white" stroke-width="0.5" opacity="0.2" />
    </pattern>
    <pattern id="grid" width="100" height="100" patternUnits="userSpaceOnUse">
      <rect width="100" height="100" fill="url(#smallGrid)" />
      <path d="M 100 0 L 0 0 0 100" fill="none" stroke="white" stroke-width="1" opacity="0.3" />
    </pattern>
    
    <!-- Shadow for content box -->
    <filter id="shadow" x="130" y="95" width="940" height="440" filterUnits="userSpaceOnUse" color-interpolation-filters="sRGB">
      <feFlood flood-opacity="0" result="BackgroundImageFix" />
      <feColorMatrix in="SourceAlpha" type="matrix" values="0 0 0 0 0 0 0 0 0 0 0 0 0 0 0 0 0 0 127 0" />
      <feOffset />
      <feGaussianBlur stdDeviation="10" />
      <feColorMatrix type="matrix" values="0 0 0 0 0 0 0 0 0 0 0 0 0 0 0 0 0 0 0.5 0" />
      <feBlend mode="normal" in2="BackgroundImageFix" result="effect1_dropShadow" />
      <feBlend mode="normal" in="SourceGraphic" in2="effect1_dropShadow" result="shape" />
    </filter>
  </defs>
</svg> 